<!DOCTYPE svg PUBLIC "-//W3C//DTD SVG 20010904//EN" "http://www.w3.org/TR/2001/REC-SVG-20010904/DTD/svg10.dtd">
<svg version="1.0" xmlns="http://www.w3.org/2000/svg" width="693px" height="385px" viewBox="0 0 6930 3850" preserveAspectRatio="xMidYMid meet">
<g id="layer101" fill="#ffffff" stroke="none">
 <path d="M3327 3259 c-64 -15 -124 -59 -163 -121 -16 -25 -77 -235 -185 -640 -294 -1101 -274 -1021 -261 -1085 25 -118 100 -195 227 -232 38 -11 275 -75 525 -142 250 -67 529 -142 620 -166 182 -50 186 -51 485 -129 116 -30 230 -61 255 -69 25 -7 117 -33 205 -57 148 -40 169 -43 275 -41 120 1 233 20 305 52 34 15 416 233 837 478 43 25 95 64 116 88 62 71 87 177 60 256 -12 36 -481 855 -528 924 -69 99 -199 205 -316 257 -51 22 -67 27 -467 134 -571 153 -647 174 -907 243 -146 39 -287 77 -315 85 -27 8 -138 38 -245 66 -107 28 -242 65 -299 81 -107 30 -157 34 -224 18z m188 -750 c66 -17 123 -33 126 -35 3 -2 -34 -151 -82 -331 -49 -180 -89 -333 -89 -338 0 -6 43 -22 95 -35 53 -13 101 -27 106 -31 11 -6 -45 -244 -61 -262 -6 -7 -693 167 -709 180 -5 3 60 255 68 265 3 4 52 -6 109 -21 l103 -29 8 22 c4 11 45 164 92 338 67 254 87 317 99 313 8 -2 69 -18 135 -36z m1740 -128 c76 -38 127 -92 169 -180 28 -60 31 -75 31 -161 -1 -80 -8 -120 -44 -255 -52 -191 -85 -268 -140 -328 -62 -67 -125 -91 -236 -91 -69 0 -103 6 -148 23 -76 30 -164 111 -202 188 -27 52 -30 68 -30 148 1 108 25 180 84 247 82 93 217 131 327 94 91 -31 90 -28 56 -156 -17 -61 -32 -114 -35 -116 -3 -3 -14 -1 -25 5 -83 44 -174 -48 -126 -127 39 -67 124 -69 158 -4 21 41 96 334 96 376 0 87 -54 138 -156 146 l-61 5 30 112 c34 126 30 123 130 112 34 -4 85 -20 122 -38z m-967 -66 c29 -9 52 -21 52 -27 0 -11 -62 -250 -66 -257 -2 -1 -13 4 -26 13 -12 9 -41 16 -64 16 -35 0 -47 -5 -68 -31 -58 -69 -15 -169 73 -169 73 0 87 22 142 224 27 99 51 181 54 184 6 6 255 -59 255 -67 0 -24 -105 -385 -124 -427 -33 -71 -87 -128 -154 -161 -51 -25 -67 -28 -157 -27 -125 0 -191 24 -269 95 -128 117 -159 295 -80 451 80 158 259 234 432 183z m1600 -509 c191 -97 222 -346 60 -491 -27 -25 -55 -45 -60 -45 -6 0 -25 -7 -44 -16 -26 -12 -52 -15 -103 -12 -117 9 -203 65 -253 165 -35 73 -33 188 5 265 71 145 252 207 395 134z"/>
 <path d="M809 2369 c-156 -226 -285 -415 -287 -420 -2 -4 95 -9 216 -11 l219 -3 57 -30 c71 -36 112 -90 126 -163 27 -145 -61 -262 -219 -292 -29 -5 -166 -10 -302 -10 l-249 0 0 -136 0 -136 333 5 c260 3 343 7 383 19 213 64 354 252 354 473 0 137 -55 280 -145 374 -61 64 -120 100 -210 127 -33 10 -61 19 -63 20 -2 1 91 129 205 285 115 156 212 290 217 297 6 9 -31 12 -172 12 l-179 0 -284 -411z"/>
 <path d="M1710 2215 l0 -565 145 0 145 0 0 565 0 565 -145 0 -145 0 0 -565z"/>
 <path d="M2220 2215 l0 -565 145 0 145 0 0 565 0 565 -145 0 -145 0 0 -565z"/>
 </g>

</svg>