<?xml version="1.0" standalone="no"?>
<!DOCTYPE svg PUBLIC "-//W3C//DTD SVG 20010904//EN"
 "http://www.w3.org/TR/2001/REC-SVG-20010904/DTD/svg10.dtd">
<svg version="1.0" xmlns="http://www.w3.org/2000/svg"
 width="385.000000pt" height="385.000000pt" viewBox="0 0 385.000000 385.000000"
 preserveAspectRatio="xMidYMid meet">
<metadata>
Created by potrace 1.11, written by Peter Selinger 2001-2013
</metadata>
<g transform="translate(0.000000,385.000000) scale(0.100000,-0.100000)"
fill="#000000" stroke="none">
<path d="M2428 3064 c-2 -1 -21 -5 -43 -8 -22 -2 -67 -12 -100 -20 -33 -9 -67
-18 -75 -20 -8 -2 -42 -11 -75 -20 -33 -9 -67 -18 -75 -20 -8 -2 -35 -10 -60
-17 -57 -16 -60 -17 -87 -23 -87 -22 -95 -24 -130 -35 -17 -5 -34 -7 -37 -3
-3 3 -6 -1 -6 -8 0 -7 -3 -11 -6 -8 -3 4 -20 2 -37 -3 -18 -6 -42 -12 -54 -15
-12 -2 -34 -9 -48 -14 -14 -5 -25 -7 -25 -4 0 2 -9 0 -19 -6 -11 -5 -37 -13
-58 -16 -21 -3 -44 -11 -50 -16 -7 -6 -13 -8 -13 -5 0 2 -48 -9 -107 -25 -102
-27 -127 -34 -163 -43 -8 -2 -15 -4 -15 -5 0 -1 -11 -3 -23 -6 -13 -2 -63 -15
-111 -29 -49 -14 -98 -28 -110 -30 -37 -8 -54 -13 -116 -30 -81 -23 -237 -65
-255 -69 -8 -2 -35 -10 -60 -17 -25 -7 -54 -14 -65 -16 -56 -10 -145 -86 -167
-142 -21 -56 -29 -131 -17 -161 17 -41 28 -84 23 -91 -3 -5 0 -9 6 -9 6 0 8
-4 5 -10 -3 -5 -3 -16 2 -22 4 -7 9 -20 10 -28 1 -9 21 -85 43 -169 23 -85 43
-161 46 -170 2 -9 13 -50 24 -91 12 -41 23 -86 26 -99 3 -13 9 -32 14 -41 5
-10 7 -20 4 -22 -2 -3 0 -18 7 -34 6 -16 12 -36 14 -44 2 -8 8 -35 15 -60 7
-25 14 -52 16 -60 2 -8 8 -33 14 -55 6 -22 15 -56 20 -75 4 -19 15 -57 23 -84
9 -27 16 -52 15 -55 0 -3 1 -8 2 -11 1 -3 3 -13 6 -22 2 -10 6 -26 8 -35 3
-10 5 -20 7 -23 1 -3 3 -9 4 -15 3 -20 30 -71 54 -103 28 -38 92 -78 136 -86
17 -3 40 -8 52 -10 13 -3 23 -2 23 2 0 4 15 8 33 9 37 3 55 7 79 18 10 4 29 8
43 9 14 0 25 5 25 10 0 5 3 7 6 3 3 -3 18 -1 33 5 14 5 35 11 46 13 28 5 177
44 195 52 8 3 24 8 35 10 11 3 25 6 30 7 6 2 24 6 40 10 17 4 37 10 45 13 8 4
20 7 25 8 6 1 12 3 15 4 8 4 71 18 105 25 6 1 15 4 20 8 6 3 28 10 50 14 48
10 46 9 65 16 8 4 35 11 60 17 25 7 54 14 65 17 11 3 29 7 40 10 11 2 61 15
110 29 50 14 97 28 105 30 21 6 92 25 110 29 8 2 40 11 71 20 31 9 66 19 78
21 11 3 29 7 39 10 9 2 53 14 97 26 44 11 87 23 95 24 8 2 16 4 18 5 1 2 7 4
12 5 6 1 11 3 13 4 1 2 13 5 27 8 36 7 54 11 60 14 3 1 10 3 15 4 6 2 12 4 15
5 13 5 47 12 63 13 9 1 17 5 17 9 0 4 11 8 25 8 14 0 25 4 25 9 0 7 20 17 50
25 3 0 35 22 70 47 85 61 148 132 207 232 26 45 50 84 53 87 3 3 6 11 8 19 1
7 14 27 27 45 13 17 24 34 24 39 0 4 7 17 14 30 51 83 157 271 157 277 0 5 3
10 8 12 4 2 20 28 36 58 16 30 34 58 40 62 6 4 7 8 3 8 -5 0 -1 7 7 16 9 8 14
20 11 25 -4 5 -2 9 3 9 11 0 25 59 26 108 3 84 -59 188 -133 225 -36 18 -75
41 -81 47 -3 3 -23 14 -45 25 -22 11 -42 23 -45 26 -3 3 -59 36 -125 74 -66
37 -140 79 -165 93 -25 14 -48 31 -52 36 -4 6 -8 8 -8 4 0 -4 -21 6 -47 22
-26 17 -53 30 -60 30 -7 0 -13 4 -13 9 0 12 -136 77 -180 87 -19 4 -39 9 -45
10 -48 13 -200 26 -207 18z m530 -610 c82 -31 146 -111 158 -196 3 -18 7 -39
9 -45 2 -7 0 -13 -6 -13 -6 0 -8 -4 -5 -9 10 -16 -25 -99 -59 -139 -62 -71
-161 -101 -261 -77 -50 11 -125 75 -153 128 -36 70 -34 185 4 243 40 61 142
133 167 118 4 -3 8 -1 8 3 0 15 89 6 138 -13z m-607 -99 c55 -20 113 -75 145
-138 14 -26 43 -114 66 -195 52 -188 57 -296 17 -382 -47 -101 -109 -155 -212
-185 -31 -9 -75 -15 -99 -13 l-43 3 -27 100 c-15 55 -27 103 -28 107 0 4 16 4
35 1 44 -7 121 21 136 49 30 56 29 77 -11 231 -40 156 -61 200 -99 205 -28 4
-69 -22 -83 -53 -15 -34 6 -80 44 -96 27 -11 35 -10 61 4 16 10 31 16 32 15
10 -12 55 -211 49 -219 -3 -6 -25 -20 -48 -30 -55 -25 -157 -25 -212 0 -151
69 -223 269 -152 422 39 85 116 151 208 180 45 13 175 10 221 -6z m-1310 -166
c45 -165 51 -144 -44 -168 -45 -12 -87 -24 -93 -26 -7 -2 16 -106 67 -296 43
-161 77 -294 76 -295 -7 -6 -248 -66 -252 -62 -2 2 -39 132 -81 288 -42 157
-77 286 -79 288 -3 3 -151 -33 -177 -43 -9 -4 -21 25 -42 105 -15 61 -29 118
-30 127 -1 13 58 32 304 98 168 46 309 82 315 81 5 -2 22 -45 36 -97z m614
-33 c59 -29 103 -76 134 -142 18 -37 114 -375 108 -380 -1 -1 -47 -14 -102
-28 -55 -15 -107 -29 -116 -32 -13 -4 -23 22 -54 138 -43 161 -55 191 -90 214
-46 30 -115 -14 -115 -75 0 -68 72 -105 128 -65 13 9 24 14 26 13 5 -7 65
-243 63 -246 -2 -1 -32 -10 -67 -19 -81 -20 -150 -12 -230 27 -109 55 -171
159 -172 290 -1 100 22 158 91 232 95 102 270 134 396 73z"/>
</g>
</svg>
